<svg width="570" height="120" viewBox="0 0 570 120" fill="none" xmlns="http://www.w3.org/2000/svg">
<g clip-path="url(#clip0_108_9270)">
<path d="M430.701 33.957V61.063H436.915V50.958H442.426V45.415H437.032V33.957H430.701Z" fill="#8BAED4"/>
<path d="M406.162 85.4571V63.2791H437.033V85.4561L406.162 85.4571ZM430.948 80.0431V68.6921H412.246V80.0431H430.948Z" fill="#8BAED4"/>
<path d="M415.208 34.942C415.208 34.942 414.378 49.602 425.683 55.679L422.433 60.396C422.433 60.396 414.153 54.654 412.277 48.371C410.401 54.654 402.12 60.396 402.12 60.396L398.871 55.679C410.175 49.602 409.346 34.942 409.346 34.942H415.208Z" fill="#8BAED4"/>
<path d="M482.67 33.957V61.063H476.457V48.618H468.366V43.073H476.34V33.957H482.67Z" fill="#8BAED4"/>
<path d="M466.347 87.241C456.723 87.241 448.922 81.311 448.922 73.999C448.922 66.685 456.724 60.756 466.347 60.756C475.97 60.756 483.772 66.685 483.772 73.999C483.772 81.311 475.97 87.241 466.347 87.241ZM477.186 73.999C477.186 69.914 472.332 66.601 466.347 66.601C460.362 66.601 455.509 69.914 455.509 73.999C455.509 78.084 460.362 81.396 466.347 81.396C472.332 81.396 477.186 78.083 477.186 73.999Z" fill="#8BAED4"/>
<path d="M456.028 48.371C454.152 54.654 446.565 59.911 446.565 59.911L443.316 55.194C453.927 49.602 453.097 34.942 453.097 34.942H458.959C458.959 34.942 458.129 49.602 468.739 55.194L465.49 59.911C465.49 59.911 457.904 54.654 456.028 48.371Z" fill="#8BAED4"/>
<path d="M514.294 34.871H489.884V40.424H514.294V34.871Z" fill="#8BAED4"/>
<path d="M527.142 33.957V67.588H520.928V50.01H512.062V44.465H520.811V33.957H527.142Z" fill="#8BAED4"/>
<path d="M502.136 49.763C500.26 56.047 491.019 61.916 491.019 61.916L487.77 57.199C500.035 50.993 499.205 34.942 499.205 34.942H505.067C505.067 34.942 504.237 50.993 516.531 57.291L513.283 62.008C513.283 62.008 504.012 56.047 502.136 49.763Z" fill="#8BAED4"/>
<path d="M496.058 63.2791V85.4571H527.704V80.0821H502.141V63.2791H496.058Z" fill="#8BAED4"/>
<path d="M557.787 34.871H532.69V40.424H557.787V34.871Z" fill="#8BAED4"/>
<path d="M569.17 33.957V85.536H562.957L562.84 33.957H569.17Z" fill="#8BAED4"/>
<path d="M550.799 38.0691C550.799 38.0691 551.89 65.8061 530.93 71.5161L533.751 76.9691C533.751 76.9691 557.009 73.1481 557.785 38.0691H550.799Z" fill="#8BAED4"/>
<path d="M360.666 28.525C355.758 0.349045 271.097 -8.44495 171.559 8.88505C129.756 16.165 92.014 26.906 62.621 38.99C67.135 39.09 70.485 40.124 72.516 42.152C74.107 43.745 74.912 45.93 74.912 48.652V51.447H65.153V48.981C65.153 46.924 63.919 45.649 61.733 45.649C59.9 45.649 58.767 46.478 58.402 48.11C58.302 48.565 58.272 49.346 58.446 50.056C59.49 54.328 73.979 56.977 75.561 64.859C75.766 65.872 76.048 68.04 75.605 71.146C74.702 77.501 69.116 79.954 62.01 79.954C52.092 79.954 48.061 75.253 48.061 68.776L48.069 65.712H58.531L58.537 69.53C58.537 71.676 60.097 72.862 62.221 72.862C64.236 72.862 65.409 72.05 65.816 70.391C66.007 69.628 66.087 68.509 65.745 67.647C63.809 62.789 50.275 60.519 48.611 52.667C48.24 50.9 48.21 49.399 48.517 47.499C48.685 46.469 49 45.59 49.382 44.783C16.775 60.031 -2.29804 76.807 0.221955 91.293C5.13296 119.471 89.7939 128.258 189.329 110.929C233.08 103.31 272.413 91.911 302.353 79.135C301.916 79.157 301.501 79.203 301.05 79.203C294.237 79.203 288.155 76.651 287.523 69.687C287.41 68.421 287.39 67.89 287.387 67.167L287.389 51.16C287.389 50.472 287.472 49.26 287.547 48.634C288.355 41.903 293.676 39.128 301.052 39.128C306.756 39.128 313.753 40.765 314.525 48.638C314.625 49.625 314.613 50.68 314.612 51.029C314.612 51.033 314.612 51.033 314.612 51.038V52.541H304.751V50.293V50.284C304.751 50.235 304.739 49.392 304.63 48.865C304.468 48.062 303.782 46.2 300.974 46.2C298.203 46.2 297.484 48.067 297.302 48.867C297.201 49.309 297.15 49.941 297.15 50.642V68.038C297.144 68.643 297.172 69.113 297.234 69.464C297.283 69.738 297.779 72.133 301.008 72.133C304.212 72.133 304.706 69.738 304.75 69.464C304.835 68.992 304.848 68.429 304.842 68.038V62.648H300.963V56.842H314.679C314.679 56.842 314.679 67.167 314.679 67.169C314.674 67.872 314.664 68.394 314.548 69.687C314.381 71.514 313.805 73.06 312.904 74.381C344.669 59.307 363.153 42.8 360.666 28.525ZM102.574 78.465L97.578 44.534H97.4L92.279 78.465H81.752L88.831 40.146H106L113.034 78.465H102.574ZM153.193 78.465L152.961 45.192H152.791L146.597 78.465H136.722L130.56 45.192H130.386L130.161 78.465H120.372L121.219 40.146H136.96L141.545 68.612H141.768L146.362 40.146H162.1L162.943 78.465H153.193ZM199.279 71.039C198.227 78.462 190.956 79.757 185.817 79.757C177.286 79.757 172.01 76.111 172.01 68.688L172.013 65.66H182.351L182.36 69.433C182.36 71.48 183.804 72.734 186.031 72.734C188.021 72.734 189.184 71.936 189.586 70.295C189.774 69.532 189.855 68.418 189.52 67.575C187.62 62.809 174.189 60.477 172.556 52.744C172.182 50.994 172.156 49.504 172.462 47.626C173.599 40.615 180.326 39.159 185.741 39.159C190.581 39.159 194.104 40.217 196.219 42.331C197.795 43.907 198.595 46.073 198.595 48.767V51.533H188.927V49.093C188.927 47.006 187.631 45.797 185.547 45.797C183.7 45.797 182.584 46.618 182.219 48.234C182.145 48.576 182.071 49.37 182.267 50.159C183.301 54.41 197.664 57.006 199.239 64.812C199.439 65.811 199.716 67.949 199.279 71.039ZM235.082 67.559C235.097 68.277 235.025 69.714 234.986 70.08C234.396 76.393 229.882 79.603 221.599 79.603C213.289 79.603 208.771 76.393 208.182 70.08C208.143 69.714 208.071 68.278 208.089 67.564V40.141H217.978V68.43C217.97 69.063 218 69.532 218.063 69.857C218.186 70.486 218.812 72.529 221.6 72.529C224.383 72.529 225.011 70.487 225.142 69.862C225.199 69.532 225.228 69.037 225.228 68.43V40.141H235.083C235.082 40.141 235.082 67.564 235.082 67.559ZM277.691 78.073H263.927L254.693 47.723H254.537L255.051 78.073H245.459V40.146H259.796L268.334 69.303H268.536L268.029 40.146H277.691V78.073Z" fill="#8BAED4"/>
</g>
<defs>
<clipPath id="clip0_108_9270">
<rect width="569.17" height="119.816" fill="white"/>
</clipPath>
</defs>
</svg>
